<svg class="lds-spinner" width="32" height="32" xmlns="http://www.w3.org/2000/svg" viewBox="0 0 100 100" preserveAspectRatio="xMidYMid" style="background:0 0"><rect x="45" y="7" rx="18" ry="2.8" width="10" height="26" fill="#fff"><animate attributeName="opacity" values="1;0" keyTimes="0;1" dur="1s" begin="-0.875s" repeatCount="indefinite"/></rect><rect x="45" y="7" rx="18" ry="2.8" width="10" height="26" fill="#fff" transform="rotate(45 50 50)"><animate attributeName="opacity" values="1;0" keyTimes="0;1" dur="1s" begin="-0.75s" repeatCount="indefinite"/></rect><rect x="45" y="7" rx="18" ry="2.8" width="10" height="26" fill="#fff" transform="rotate(90 50 50)"><animate attributeName="opacity" values="1;0" keyTimes="0;1" dur="1s" begin="-0.625s" repeatCount="indefinite"/></rect><rect x="45" y="7" rx="18" ry="2.8" width="10" height="26" fill="#fff" transform="rotate(135 50 50)"><animate attributeName="opacity" values="1;0" keyTimes="0;1" dur="1s" begin="-0.5s" repeatCount="indefinite"/></rect><rect x="45" y="7" rx="18" ry="2.8" width="10" height="26" fill="#fff" transform="rotate(180 50 50)"><animate attributeName="opacity" values="1;0" keyTimes="0;1" dur="1s" begin="-0.375s" repeatCount="indefinite"/></rect><rect x="45" y="7" rx="18" ry="2.8" width="10" height="26" fill="#fff" transform="rotate(225 50 50)"><animate attributeName="opacity" values="1;0" keyTimes="0;1" dur="1s" begin="-0.25s" repeatCount="indefinite"/></rect><rect x="45" y="7" rx="18" ry="2.8" width="10" height="26" fill="#fff" transform="rotate(270 50 50)"><animate attributeName="opacity" values="1;0" keyTimes="0;1" dur="1s" begin="-0.125s" repeatCount="indefinite"/></rect><rect x="45" y="7" rx="18" ry="2.8" width="10" height="26" fill="#fff" transform="rotate(315 50 50)"><animate attributeName="opacity" values="1;0" keyTimes="0;1" dur="1s" begin="0s" repeatCount="indefinite"/></rect></svg>